<svg width="222" height="54" viewBox="0 0 222 54" fill="none" xmlns="http://www.w3.org/2000/svg">
<path d="M222.001 53.1171H212.35V0H222.001V53.1171Z" fill="#23292C"/>
<path d="M204.876 35.361C204.876 36.3187 204.802 37.4974 204.655 39.0445H178.796C179.828 43.0965 183.069 45.454 187.637 45.454C191.173 45.454 194.562 43.8332 196.698 41.402L202.297 47.0747C199.056 51.4214 193.088 53.9999 187.047 53.9999C176.439 53.9999 168.703 46.559 168.703 35.9503C168.703 24.8259 177.175 17.8271 186.974 17.8271C196.846 17.8271 204.876 24.8259 204.876 35.361ZM178.796 32.7825H195.151C194.857 28.7305 191.541 26.152 187.195 26.152C183.216 26.152 179.828 28.1412 178.796 32.7825Z" fill="#23292C"/>
<path d="M148.964 39.7093L155.447 18.7129H165.909L153.753 53.1175H145.502L138.429 30.795L131.578 53.1175H123.327L110.802 18.7129H121.264L127.747 39.7093L134.304 18.7129H142.408L148.964 39.7093Z" fill="#23292C"/>
<path d="M95.9019 23.2788V18.7112H105.553V53.1158H95.9019V48.1798C93.618 51.716 89.1977 53.9999 84.5564 53.9999C75.0528 53.9999 67.9803 46.6327 67.9803 35.9503C67.9803 25.268 74.9055 17.8271 84.7775 17.8271C89.1977 17.8271 93.618 19.7426 95.9019 23.2788ZM86.6929 45.0119C91.5552 45.0119 95.6072 40.8863 95.6072 35.9503C95.6072 30.7197 91.4079 26.8151 86.6192 26.8151C81.6096 26.8151 77.8523 30.9407 77.8523 35.9503C77.8523 40.739 81.6096 45.0119 86.6929 45.0119Z" fill="#23292C"/>
<path d="M55.4787 12.6719C52.1634 12.6719 49.3639 10.0934 49.3639 6.85185C49.3639 3.6103 52.1634 1.10547 55.4787 1.10547C58.8675 1.10547 61.5934 3.6103 61.5934 6.85185C61.5934 10.0934 58.8675 12.6719 55.4787 12.6719ZM60.341 53.1175H50.69V18.713H60.341V53.1175Z" fill="#23292C"/>
<path d="M0 2.35938H19.8913C34.4783 2.35938 42.9505 13.4101 42.9505 27.8497C42.9505 42.2157 34.4783 53.119 19.8913 53.119H0V2.35938ZM10.2403 44.0574H19.8913C28.3635 44.0574 32.7101 36.5429 32.7101 27.8497C32.7101 19.1565 28.3635 11.421 19.8913 11.421H10.2403V44.0574Z" fill="#23292C"/>
</svg>
