<svg width="116" height="29" viewBox="0 0 116 29" fill="none" xmlns="http://www.w3.org/2000/svg">
<path d="M115.133 27.5856H110.129V0.0439453H115.133V27.5856Z" fill="white"/>
<path d="M106.254 18.3795C106.254 18.8761 106.215 19.4873 106.139 20.2894H92.731C93.2658 22.3904 94.9466 23.6128 97.3149 23.6128C99.1485 23.6128 100.906 22.7724 102.013 21.5118L104.917 24.4532C103.236 26.7069 100.142 28.0439 97.0093 28.0439C91.5086 28.0439 87.4977 24.1858 87.4977 18.6851C87.4977 12.917 91.8906 9.28809 96.9711 9.28809C102.09 9.28809 106.254 12.917 106.254 18.3795ZM92.731 17.0425H101.211C101.058 14.9416 99.3395 13.6046 97.0857 13.6046C95.0229 13.6046 93.2658 14.636 92.731 17.0425Z" fill="white"/>
<path d="M77.263 20.6338L80.6246 9.74707H86.0489L79.746 27.5861H75.4677L71.8006 16.0117L68.248 27.5861H63.9697L57.4759 9.74707H62.9001L66.2617 20.6338L69.6614 9.74707H73.8633L77.263 20.6338Z" fill="white"/>
<path d="M49.7498 12.1148V9.74648H54.7539V27.5855H49.7498V25.0261C48.5656 26.8597 46.2736 28.0439 43.8671 28.0439C38.9394 28.0439 35.2723 24.224 35.2723 18.6851C35.2723 13.1462 38.863 9.28809 43.9817 9.28809C46.2736 9.28809 48.5656 10.2813 49.7498 12.1148ZM44.9749 23.3836C47.496 23.3836 49.597 21.2444 49.597 18.6851C49.597 15.9729 47.4196 13.9484 44.9367 13.9484C42.3391 13.9484 40.391 16.0875 40.391 18.6851C40.391 21.168 42.3391 23.3836 44.9749 23.3836Z" fill="white"/>
<path d="M28.79 6.61446C27.0711 6.61446 25.6195 5.27749 25.6195 3.59672C25.6195 1.91596 27.0711 0.617188 28.79 0.617188C30.5472 0.617188 31.9606 1.91596 31.9606 3.59672C31.9606 5.27749 30.5472 6.61446 28.79 6.61446ZM31.3112 27.5858H26.3071V9.74679H31.3112V27.5858Z" fill="white"/>
<path d="M0.0239868 1.26758H10.3378C17.9012 1.26758 22.2941 6.99745 22.2941 14.4845C22.2941 21.9333 17.9012 27.5868 10.3378 27.5868H0.0239868V1.26758ZM5.33367 22.8883H10.3378C14.7307 22.8883 16.9844 18.992 16.9844 14.4845C16.9844 9.97699 14.7307 5.96608 10.3378 5.96608H5.33367V22.8883Z" fill="white"/>
</svg>
